<svg width="43" height="36" viewBox="0 0 43 36" fill="none" xmlns="http://www.w3.org/2000/svg">
<path d="M17.1562 0C19.4219 0 21.1641 0.8125 22.3828 2.4375C23.6016 4.04688 24.2109 6.51562 24.2109 9.84375C24.2109 13.7656 23.3906 17.7188 21.75 21.7031C20.1094 25.6719 17.9453 28.9375 15.2578 31.5C12.5859 34.0625 9.78906 35.3438 6.86719 35.3438C4.69531 35.3438 3.00781 34.5312 1.80469 32.9062C0.601562 31.2656 0 28.7812 0 25.4531C0 21.5469 0.820312 17.6094 2.46094 13.6406C4.10156 9.67188 6.25 6.40625 8.90625 3.84375C11.5625 1.28125 14.3125 0 17.1562 0ZM16.9922 0.867188C14.8828 0.867188 12.8516 2.30469 10.8984 5.17969C8.96094 8.03906 7.39062 11.5859 6.1875 15.8203C4.98438 20.0547 4.38281 24.0312 4.38281 27.75C4.38281 29.9375 4.63281 31.6094 5.13281 32.7656C5.64844 33.9062 6.34375 34.4766 7.21875 34.4766C9.32812 34.4766 11.3516 33.0469 13.2891 30.1875C15.2422 27.3125 16.8203 23.7578 18.0234 19.5234C19.2266 15.2891 19.8281 11.3125 19.8281 7.59375C19.8281 5.40625 19.5703 3.74219 19.0547 2.60156C18.5547 1.44531 17.8672 0.867188 16.9922 0.867188ZM28.7344 34.6641L36.8438 4.47656C34.9219 5.55469 32.5391 6.53125 29.6953 7.40625L29.8359 6.39844C31.6953 5.83594 33.3203 5.20312 34.7109 4.5C36.1172 3.79688 37.2812 3.11719 38.2031 2.46094C39.1406 1.78906 40.2031 0.96875 41.3906 0H42.3516L33 34.6641H28.7344Z" fill="#E5BF9B"/>
</svg>
