<svg width="51" height="36" viewBox="0 0 51 36" fill="none" xmlns="http://www.w3.org/2000/svg">
<path d="M17.1562 0C19.4219 0 21.1641 0.8125 22.3828 2.4375C23.6016 4.04688 24.2109 6.51562 24.2109 9.84375C24.2109 13.7656 23.3906 17.7188 21.75 21.7031C20.1094 25.6719 17.9453 28.9375 15.2578 31.5C12.5859 34.0625 9.78906 35.3438 6.86719 35.3438C4.69531 35.3438 3.00781 34.5312 1.80469 32.9062C0.601562 31.2656 0 28.7812 0 25.4531C0 21.5469 0.820312 17.6094 2.46094 13.6406C4.10156 9.67188 6.25 6.40625 8.90625 3.84375C11.5625 1.28125 14.3125 0 17.1562 0ZM16.9922 0.867188C14.8828 0.867188 12.8516 2.30469 10.8984 5.17969C8.96094 8.03906 7.39062 11.5859 6.1875 15.8203C4.98438 20.0547 4.38281 24.0312 4.38281 27.75C4.38281 29.9375 4.63281 31.6094 5.13281 32.7656C5.64844 33.9062 6.34375 34.4766 7.21875 34.4766C9.32812 34.4766 11.3516 33.0469 13.2891 30.1875C15.2422 27.3125 16.8203 23.7578 18.0234 19.5234C19.2266 15.2891 19.8281 11.3125 19.8281 7.59375C19.8281 5.40625 19.5703 3.74219 19.0547 2.60156C18.5547 1.44531 17.8672 0.867188 16.9922 0.867188ZM40.3125 9.79688C39.3438 10.75 38.3047 11.4531 37.1953 11.9062C36.1016 12.3594 35.0469 12.5859 34.0312 12.5859C33.0312 12.5859 32.1797 12.3438 31.4766 11.8594C30.7734 11.375 30.4219 10.5312 30.4219 9.32812C30.4219 7.71875 31.0547 6.19531 32.3203 4.75781C33.5859 3.32031 35.2031 2.17188 37.1719 1.3125C39.1406 0.4375 41.1016 0 43.0547 0C44.4297 0 45.6641 0.242188 46.7578 0.726562C47.8516 1.19531 48.7109 1.92188 49.3359 2.90625C49.9766 3.89062 50.2969 5.11719 50.2969 6.58594C50.2969 9.44531 49.2109 12.1562 47.0391 14.7188C44.8672 17.2656 41.8594 20.1719 38.0156 23.4375C34.1719 26.6875 31.5625 29.0391 30.1875 30.4922C30.6562 30.4453 31.125 30.4219 31.5938 30.4219C32.4688 30.4219 33.3438 30.4844 34.2188 30.6094C35.0938 30.7344 36.4141 30.9688 38.1797 31.3125C39.9453 31.6562 41.3281 31.8281 42.3281 31.8281C45.1406 31.8281 46.5469 30.7266 46.5469 28.5234C46.5469 26.5078 45.25 24.9844 42.6562 23.9531L43.1484 23.2969C46.2578 24.5625 47.8125 26.4609 47.8125 28.9922C47.8125 30.0391 47.5625 31.0156 47.0625 31.9219C46.5625 32.8281 45.7734 33.5625 44.6953 34.125C43.6328 34.6719 42.3047 34.9453 40.7109 34.9453C39.6172 34.9453 38.3047 34.7891 36.7734 34.4766C35.2578 34.1484 34.0234 33.9062 33.0703 33.75C32.1172 33.5781 31.0312 33.4922 29.8125 33.4922C28.8438 33.4922 28 33.5859 27.2812 33.7734C26.5625 33.9453 25.7109 34.2422 24.7266 34.6641L24.9609 33.6562C30.3359 29.2031 34.5312 25.4375 37.5469 22.3594C40.5625 19.2812 42.7109 16.5391 43.9922 14.1328C45.2891 11.7266 45.9375 9.33594 45.9375 6.96094C45.9375 3.22656 44.4141 1.35938 41.3672 1.35938C39.9141 1.35938 38.4219 1.74219 36.8906 2.50781C35.3594 3.27344 34.0859 4.27344 33.0703 5.50781C32.0703 6.72656 31.5703 7.98438 31.5703 9.28125C31.5703 10.0625 31.7891 10.6406 32.2266 11.0156C32.6641 11.3906 33.375 11.5781 34.3594 11.5781C35.375 11.5781 36.2891 11.3828 37.1016 10.9922C37.9141 10.6016 38.7969 9.97656 39.75 9.11719L40.3125 9.79688Z" fill="#E5BF9B"/>
</svg>
