<svg width="51" height="36" viewBox="0 0 51 36" fill="none" xmlns="http://www.w3.org/2000/svg">
<path d="M17.1562 0C19.4219 0 21.1641 0.8125 22.3828 2.4375C23.6016 4.04688 24.2109 6.51562 24.2109 9.84375C24.2109 13.7656 23.3906 17.7188 21.75 21.7031C20.1094 25.6719 17.9453 28.9375 15.2578 31.5C12.5859 34.0625 9.78906 35.3438 6.86719 35.3438C4.69531 35.3438 3.00781 34.5312 1.80469 32.9062C0.601562 31.2656 0 28.7812 0 25.4531C0 21.5469 0.820312 17.6094 2.46094 13.6406C4.10156 9.67188 6.25 6.40625 8.90625 3.84375C11.5625 1.28125 14.3125 0 17.1562 0ZM16.9922 0.867188C14.8828 0.867188 12.8516 2.30469 10.8984 5.17969C8.96094 8.03906 7.39062 11.5859 6.1875 15.8203C4.98438 20.0547 4.38281 24.0312 4.38281 27.75C4.38281 29.9375 4.63281 31.6094 5.13281 32.7656C5.64844 33.9062 6.34375 34.4766 7.21875 34.4766C9.32812 34.4766 11.3516 33.0469 13.2891 30.1875C15.2422 27.3125 16.8203 23.7578 18.0234 19.5234C19.2266 15.2891 19.8281 11.3125 19.8281 7.59375C19.8281 5.40625 19.5703 3.74219 19.0547 2.60156C18.5547 1.44531 17.8672 0.867188 16.9922 0.867188ZM40.8516 9.79688C39.8828 10.75 38.8438 11.4531 37.7344 11.9062C36.625 12.3594 35.5625 12.5859 34.5469 12.5859C33.5469 12.5859 32.6953 12.3438 31.9922 11.8594C31.3047 11.375 30.9609 10.5312 30.9609 9.32812C30.9609 7.70312 31.5938 6.17188 32.8594 4.73438C34.125 3.29688 35.75 2.14844 37.7344 1.28906C39.7188 0.429688 41.7344 0 43.7812 0C45.7031 0 47.2188 0.414062 48.3281 1.24219C49.4531 2.07031 50.0156 3.28906 50.0156 4.89844C50.0156 6.61719 49.4062 8.28125 48.1875 9.89062C46.9688 11.5 45.4531 12.8672 43.6406 13.9922C41.8438 15.1016 40.125 15.8359 38.4844 16.1953C41.25 16.5391 43.5078 17.3438 45.2578 18.6094C47.0234 19.8594 47.9062 21.6875 47.9062 24.0938C47.9062 26.25 47.1797 28.1875 45.7266 29.9062C44.2891 31.625 42.4062 32.9609 40.0781 33.9141C37.7656 34.8672 35.3516 35.3438 32.8359 35.3438C30.1641 35.3438 28.1641 34.7812 26.8359 33.6562C25.8984 32.8594 25.4297 31.9609 25.4297 30.9609C25.4297 30.3984 25.5781 29.8672 25.875 29.3672C26.1875 28.8516 26.5938 28.4375 27.0938 28.125C27.6094 27.8125 28.1641 27.6562 28.7578 27.6562C29.3516 27.6562 29.8281 27.8203 30.1875 28.1484C30.5469 28.4609 30.7266 28.9219 30.7266 29.5312C30.7266 30.2344 30.4688 30.8906 29.9531 31.5C29.4531 32.0938 28.7969 32.4922 27.9844 32.6953C28.1562 33.1953 28.7031 33.625 29.625 33.9844C30.5469 34.3438 31.6484 34.5234 32.9297 34.5234C34.8672 34.5234 36.625 34.0859 38.2031 33.2109C39.7812 32.3359 41.0234 31.0938 41.9297 29.4844C42.8359 27.875 43.2891 26.0312 43.2891 23.9531C43.2891 21.7656 42.7891 20.0625 41.7891 18.8438C40.7891 17.625 39.3984 16.9297 37.6172 16.7578C36.6797 17.4297 35.9141 17.7656 35.3203 17.7656C34.7422 17.7656 34.4531 17.5547 34.4531 17.1328C34.4531 16.4922 35.1562 16.1719 36.5625 16.1719C36.9062 16.1719 37.1328 16.1797 37.2422 16.1953C38.7891 15.5859 40.1719 14.7734 41.3906 13.7578C42.6094 12.7422 43.5703 11.5547 44.2734 10.1953C44.9922 8.82031 45.3516 7.32812 45.3516 5.71875C45.3516 4.35938 45.0469 3.32812 44.4375 2.625C43.8438 1.90625 42.8672 1.54688 41.5078 1.54688C40.1016 1.54688 38.6641 1.91406 37.1953 2.64844C35.7266 3.38281 34.5078 4.35156 33.5391 5.55469C32.5859 6.74219 32.1094 7.98438 32.1094 9.28125C32.1094 10.0625 32.3281 10.6406 32.7656 11.0156C33.2031 11.3906 33.9141 11.5781 34.8984 11.5781C35.9141 11.5781 36.8203 11.3828 37.6172 10.9922C38.4297 10.6016 39.3125 9.97656 40.2656 9.11719L40.8516 9.79688Z" fill="#E5BF9B"/>
</svg>
