<svg width="52" height="36" viewBox="0 0 52 36" fill="none" xmlns="http://www.w3.org/2000/svg">
<path d="M17.1562 0.234375C19.4219 0.234375 21.1641 1.04688 22.3828 2.67188C23.6016 4.28125 24.2109 6.75 24.2109 10.0781C24.2109 14 23.3906 17.9531 21.75 21.9375C20.1094 25.9062 17.9453 29.1719 15.2578 31.7344C12.5859 34.2969 9.78906 35.5781 6.86719 35.5781C4.69531 35.5781 3.00781 34.7656 1.80469 33.1406C0.601562 31.5 0 29.0156 0 25.6875C0 21.7812 0.820312 17.8438 2.46094 13.875C4.10156 9.90625 6.25 6.64062 8.90625 4.07812C11.5625 1.51562 14.3125 0.234375 17.1562 0.234375ZM16.9922 1.10156C14.8828 1.10156 12.8516 2.53906 10.8984 5.41406C8.96094 8.27344 7.39062 11.8203 6.1875 16.0547C4.98438 20.2891 4.38281 24.2656 4.38281 27.9844C4.38281 30.1719 4.63281 31.8438 5.13281 33C5.64844 34.1406 6.34375 34.7109 7.21875 34.7109C9.32812 34.7109 11.3516 33.2812 13.2891 30.4219C15.2422 27.5469 16.8203 23.9922 18.0234 19.7578C19.2266 15.5234 19.8281 11.5469 19.8281 7.82812C19.8281 5.64062 19.5703 3.97656 19.0547 2.83594C18.5547 1.67969 17.8672 1.10156 16.9922 1.10156ZM51.9375 0.328125C51.0625 2 49.9844 3.30469 48.7031 4.24219C47.4375 5.16406 46 5.625 44.3906 5.625C43.7812 5.625 43.1562 5.55469 42.5156 5.41406C41.875 5.25781 40.8438 4.96875 39.4219 4.54688C38 4.125 36.875 3.91406 36.0469 3.91406C35.8438 3.91406 35.6953 3.92188 35.6016 3.9375L30.8672 17.9062C33.3203 15.1562 36.1953 13.7812 39.4922 13.7812C41.8516 13.7812 43.6016 14.3672 44.7422 15.5391C45.8828 16.7109 46.4531 18.2969 46.4531 20.2969C46.4531 22.875 45.8047 25.3438 44.5078 27.7031C43.2266 30.0469 41.4609 31.9453 39.2109 33.3984C36.9609 34.8516 34.4688 35.5781 31.7344 35.5781C29.4062 35.5781 27.6094 35.0156 26.3438 33.8906C25.4219 33.0156 24.9609 32.0859 24.9609 31.1016C24.9609 30.5703 25.1172 30.0547 25.4297 29.5547C25.7422 29.0547 26.1484 28.6562 26.6484 28.3594C27.1641 28.0469 27.7031 27.8906 28.2656 27.8906C28.875 27.8906 29.3594 28.0547 29.7188 28.3828C30.0938 28.7109 30.2812 29.1562 30.2812 29.7188C30.2812 30.4844 30.0312 31.1562 29.5312 31.7344C29.0312 32.3125 28.3672 32.7109 27.5391 32.9297C27.6172 33.2422 27.8672 33.5391 28.2891 33.8203C28.7109 34.1016 29.2344 34.3281 29.8594 34.5C30.4844 34.6719 31.125 34.7578 31.7812 34.7578C33.8594 34.7578 35.6641 33.9688 37.1953 32.3906C38.7266 30.8125 39.8828 28.8516 40.6641 26.5078C41.4609 24.1641 41.8594 21.8906 41.8594 19.6875C41.8594 18.125 41.5469 16.9141 40.9219 16.0547C40.2969 15.1797 39.3438 14.7422 38.0625 14.7422C35.7188 14.7422 33.0625 16.375 30.0938 19.6406H29.2266L35.7188 0.960938C36.9062 0.914062 38.1641 1.02344 39.4922 1.28906C40.8203 1.53906 41.9766 1.75 42.9609 1.92188C43.9609 2.07812 45.1094 2.15625 46.4062 2.15625C48.6562 2.15625 50.3047 1.4375 51.3516 0L51.9375 0.328125Z" fill="#E5BF9B"/>
</svg>
