<svg width="53" height="36" viewBox="0 0 53 36" fill="none" xmlns="http://www.w3.org/2000/svg">
<path d="M17.1562 0C19.4219 0 21.1641 0.8125 22.3828 2.4375C23.6016 4.04688 24.2109 6.51562 24.2109 9.84375C24.2109 13.7656 23.3906 17.7188 21.75 21.7031C20.1094 25.6719 17.9453 28.9375 15.2578 31.5C12.5859 34.0625 9.78906 35.3438 6.86719 35.3438C4.69531 35.3438 3.00781 34.5312 1.80469 32.9062C0.601562 31.2656 0 28.7812 0 25.4531C0 21.5469 0.820312 17.6094 2.46094 13.6406C4.10156 9.67188 6.25 6.40625 8.90625 3.84375C11.5625 1.28125 14.3125 0 17.1562 0ZM16.9922 0.867188C14.8828 0.867188 12.8516 2.30469 10.8984 5.17969C8.96094 8.03906 7.39062 11.5859 6.1875 15.8203C4.98438 20.0547 4.38281 24.0312 4.38281 27.75C4.38281 29.9375 4.63281 31.6094 5.13281 32.7656C5.64844 33.9062 6.34375 34.4766 7.21875 34.4766C9.32812 34.4766 11.3516 33.0469 13.2891 30.1875C15.2422 27.3125 16.8203 23.7578 18.0234 19.5234C19.2266 15.2891 19.8281 11.3125 19.8281 7.59375C19.8281 5.40625 19.5703 3.74219 19.0547 2.60156C18.5547 1.44531 17.8672 0.867188 16.9922 0.867188ZM46.9688 5.90625C46.9688 5.14062 47.25 4.41406 47.8125 3.72656C48.3906 3.02344 49.1016 2.57031 49.9453 2.36719C49.7266 1.96094 49.2734 1.61719 48.5859 1.33594C47.8984 1.05469 47.1953 0.914062 46.4766 0.914062C44.7266 0.914062 42.8828 1.85938 40.9453 3.75C39.0234 5.625 37.2812 8.125 35.7188 11.25C34.1562 14.3594 33.0234 17.6641 32.3203 21.1641C33.6328 18.3203 35.1875 16.2734 36.9844 15.0234C38.7812 13.7734 40.6875 13.1484 42.7031 13.1484C44.0156 13.1484 45.1797 13.4141 46.1953 13.9453C47.2266 14.4609 48.0312 15.2578 48.6094 16.3359C49.2031 17.4141 49.5 18.7578 49.5 20.3672C49.5 22.7891 48.8594 25.1562 47.5781 27.4688C46.3125 29.7812 44.5625 31.6719 42.3281 33.1406C40.0938 34.6094 37.625 35.3438 34.9219 35.3438C32.3438 35.3438 30.4219 34.6094 29.1562 33.1406C27.9062 31.6562 27.2812 29.3828 27.2812 26.3203C27.2812 22.3984 28.1953 18.3828 30.0234 14.2734C31.8672 10.1484 34.2422 6.74219 37.1484 4.05469C40.0703 1.35156 43.0391 0 46.0547 0C47.1172 0 48.125 0.179688 49.0781 0.539062C50.0469 0.882812 50.8203 1.38281 51.3984 2.03906C51.9922 2.69531 52.2891 3.44531 52.2891 4.28906C52.2891 4.89844 52.1406 5.46875 51.8438 6C51.5469 6.51562 51.1406 6.92969 50.625 7.24219C50.1094 7.53906 49.5469 7.6875 48.9375 7.6875C48.3438 7.6875 47.8672 7.53906 47.5078 7.24219C47.1484 6.92969 46.9688 6.48438 46.9688 5.90625ZM31.8984 23.6719C31.6953 25.1562 31.5938 26.6094 31.5938 28.0312C31.5938 30.1406 31.8672 31.7266 32.4141 32.7891C32.9766 33.8516 34 34.3828 35.4844 34.3828C37.4531 34.3828 39.1719 33.5078 40.6406 31.7578C42.1094 29.9922 43.2266 27.8906 43.9922 25.4531C44.7578 23.0156 45.1406 20.8516 45.1406 18.9609C45.1406 17.3203 44.8203 16.1016 44.1797 15.3047C43.5547 14.5078 42.6719 14.1094 41.5312 14.1094C40.5938 14.1094 39.5703 14.3906 38.4609 14.9531C37.3672 15.5156 36.2344 16.5078 35.0625 17.9297C33.9062 19.3516 32.8516 21.2656 31.8984 23.6719Z" fill="#E5BF9B"/>
</svg>
