<svg width="56" height="36" viewBox="0 0 56 36" fill="none" xmlns="http://www.w3.org/2000/svg">
<path d="M17.1562 0.09375C19.4219 0.09375 21.1641 0.90625 22.3828 2.53125C23.6016 4.14062 24.2109 6.60938 24.2109 9.9375C24.2109 13.8594 23.3906 17.8125 21.75 21.7969C20.1094 25.7656 17.9453 29.0312 15.2578 31.5938C12.5859 34.1562 9.78906 35.4375 6.86719 35.4375C4.69531 35.4375 3.00781 34.625 1.80469 33C0.601562 31.3594 0 28.875 0 25.5469C0 21.6406 0.820312 17.7031 2.46094 13.7344C4.10156 9.76562 6.25 6.5 8.90625 3.9375C11.5625 1.375 14.3125 0.09375 17.1562 0.09375ZM16.9922 0.960938C14.8828 0.960938 12.8516 2.39844 10.8984 5.27344C8.96094 8.13281 7.39062 11.6797 6.1875 15.9141C4.98438 20.1484 4.38281 24.125 4.38281 27.8438C4.38281 30.0312 4.63281 31.7031 5.13281 32.8594C5.64844 34 6.34375 34.5703 7.21875 34.5703C9.32812 34.5703 11.3516 33.1406 13.2891 30.2812C15.2422 27.4062 16.8203 23.8516 18.0234 19.6172C19.2266 15.3828 19.8281 11.4062 19.8281 7.6875C19.8281 5.5 19.5703 3.83594 19.0547 2.69531C18.5547 1.53906 17.8672 0.960938 16.9922 0.960938ZM55.5938 0.304688C54.5625 1.72656 52.4453 4.33594 49.2422 8.13281C46.0547 11.9297 43.4375 15.4453 41.3906 18.6797C39.3438 21.9141 37.8281 25.4141 36.8438 29.1797C36.625 30.0234 36.4531 30.8047 36.3281 31.5234C36.2031 32.2266 36.1016 32.7109 36.0234 32.9766C35.7891 33.7109 35.4219 34.3047 34.9219 34.7578C34.4219 35.2109 33.8125 35.4375 33.0938 35.4375C32.0469 35.4375 31.5234 34.8984 31.5234 33.8203C31.5234 33.5391 31.5625 33.1797 31.6406 32.7422C32.2031 29.4922 33.8906 25.9219 36.7031 22.0312C39.5156 18.125 42.6875 14.1406 46.2188 10.0781C49.75 6 51.9453 3.40625 52.8047 2.29688C50.4922 3.78125 47.7734 4.52344 44.6484 4.52344C43.6484 4.52344 42.7891 4.46094 42.0703 4.33594C41.3516 4.21094 40.3594 3.97656 39.0938 3.63281C37.8438 3.28906 36.6719 3.11719 35.5781 3.11719C34.1875 3.11719 33.1094 3.4375 32.3438 4.07812C31.5938 4.70312 31.2188 5.58594 31.2188 6.72656C31.2188 8.11719 31.8203 9.29688 33.0234 10.2656C34.2266 11.2344 35.8516 11.9297 37.8984 12.3516L37.6406 13.1484C32.5938 11.9922 30.0703 9.6875 30.0703 6.23438C30.0703 5.17188 30.3125 4.17188 30.7969 3.23438C31.2812 2.28125 32.0781 1.50781 33.1875 0.914062C34.3125 0.304688 35.7656 0 37.5469 0C38.6562 0 39.6406 0.109375 40.5 0.328125C41.375 0.53125 42.6484 0.9375 44.3203 1.54688C45.9922 2.14062 47.5469 2.4375 48.9844 2.4375C50.1094 2.4375 51.1172 2.26562 52.0078 1.92188C52.8984 1.5625 53.5859 1.02344 54.0703 0.304688H55.5938Z" fill="#E5BF9B"/>
</svg>
