<svg width="51" height="36" viewBox="0 0 51 36" fill="none" xmlns="http://www.w3.org/2000/svg">
<path d="M17.1562 0C19.4219 0 21.1641 0.8125 22.3828 2.4375C23.6016 4.04688 24.2109 6.51562 24.2109 9.84375C24.2109 13.7656 23.3906 17.7188 21.75 21.7031C20.1094 25.6719 17.9453 28.9375 15.2578 31.5C12.5859 34.0625 9.78906 35.3438 6.86719 35.3438C4.69531 35.3438 3.00781 34.5312 1.80469 32.9062C0.601562 31.2656 0 28.7812 0 25.4531C0 21.5469 0.820312 17.6094 2.46094 13.6406C4.10156 9.67188 6.25 6.40625 8.90625 3.84375C11.5625 1.28125 14.3125 0 17.1562 0ZM16.9922 0.867188C14.8828 0.867188 12.8516 2.30469 10.8984 5.17969C8.96094 8.03906 7.39062 11.5859 6.1875 15.8203C4.98438 20.0547 4.38281 24.0312 4.38281 27.75C4.38281 29.9375 4.63281 31.6094 5.13281 32.7656C5.64844 33.9062 6.34375 34.4766 7.21875 34.4766C9.32812 34.4766 11.3516 33.0469 13.2891 30.1875C15.2422 27.3125 16.8203 23.7578 18.0234 19.5234C19.2266 15.2891 19.8281 11.3125 19.8281 7.59375C19.8281 5.40625 19.5703 3.74219 19.0547 2.60156C18.5547 1.44531 17.8672 0.867188 16.9922 0.867188ZM50.9531 5.08594C50.9531 8.78906 47.7812 12.3125 41.4375 15.6562C42.7188 16.8906 43.7266 17.9297 44.4609 18.7734C45.1953 19.6016 45.8281 20.5781 46.3594 21.7031C46.8906 22.8281 47.1562 24.0625 47.1562 25.4062C47.1562 27.3906 46.5781 29.1328 45.4219 30.6328C44.2656 32.1328 42.6953 33.2969 40.7109 34.125C38.7266 34.9375 36.5391 35.3438 34.1484 35.3438C31.5547 35.3438 29.4844 34.8359 27.9375 33.8203C26.4062 32.7891 25.6406 31.2266 25.6406 29.1328C25.6406 26.5234 26.7656 24.1797 29.0156 22.1016C31.2656 20.0078 33.9766 18.2734 37.1484 16.8984C36.2109 15.9922 35.4297 15.1641 34.8047 14.4141C34.1953 13.6484 33.6953 12.8047 33.3047 11.8828C32.9141 10.9453 32.7188 9.92969 32.7188 8.83594C32.7188 7.11719 33.2656 5.58594 34.3594 4.24219C35.4531 2.89844 36.8828 1.85938 38.6484 1.125C40.4141 0.375 42.2578 0 44.1797 0C46.2109 0 47.8438 0.429688 49.0781 1.28906C50.3281 2.14844 50.9531 3.41406 50.9531 5.08594ZM40.8984 15.1406C42.0078 14.3906 43.0312 13.4766 43.9688 12.3984C44.9062 11.3203 45.6562 10.1406 46.2188 8.85938C46.7812 7.5625 47.0625 6.25781 47.0625 4.94531C47.0625 2.22656 45.8125 0.867188 43.3125 0.867188C42.125 0.867188 41.0234 1.16406 40.0078 1.75781C38.9922 2.33594 38.1875 3.15625 37.5938 4.21875C37 5.26562 36.7031 6.45312 36.7031 7.78125C36.7031 8.71875 36.8828 9.60938 37.2422 10.4531C37.6172 11.2812 38.0938 12.0547 38.6719 12.7734C39.2656 13.4766 40.0078 14.2656 40.8984 15.1406ZM42.8906 26.4141C42.8906 25.1797 42.6562 24.0469 42.1875 23.0156C41.7188 21.9844 41.1406 21.0781 40.4531 20.2969C39.7812 19.5156 38.8672 18.5625 37.7109 17.4375C36.1797 18.2812 34.8203 19.3438 33.6328 20.625C32.4609 21.8906 31.5391 23.2969 30.8672 24.8438C30.2109 26.3906 29.8828 27.9688 29.8828 29.5781C29.8828 31.125 30.2422 32.3281 30.9609 33.1875C31.6953 34.0469 32.8984 34.4766 34.5703 34.4766C36.0234 34.4766 37.3828 34.1562 38.6484 33.5156C39.9297 32.875 40.9531 31.9453 41.7188 30.7266C42.5 29.4922 42.8906 28.0547 42.8906 26.4141Z" fill="#E5BF9B"/>
</svg>
