<svg width="52" height="36" viewBox="0 0 52 36" fill="none" xmlns="http://www.w3.org/2000/svg">
<path d="M17.1562 0C19.4219 0 21.1641 0.8125 22.3828 2.4375C23.6016 4.04688 24.2109 6.51562 24.2109 9.84375C24.2109 13.7656 23.3906 17.7188 21.75 21.7031C20.1094 25.6719 17.9453 28.9375 15.2578 31.5C12.5859 34.0625 9.78906 35.3438 6.86719 35.3438C4.69531 35.3438 3.00781 34.5312 1.80469 32.9062C0.601562 31.2656 0 28.7812 0 25.4531C0 21.5469 0.820312 17.6094 2.46094 13.6406C4.10156 9.67188 6.25 6.40625 8.90625 3.84375C11.5625 1.28125 14.3125 0 17.1562 0ZM16.9922 0.867188C14.8828 0.867188 12.8516 2.30469 10.8984 5.17969C8.96094 8.03906 7.39062 11.5859 6.1875 15.8203C4.98438 20.0547 4.38281 24.0312 4.38281 27.75C4.38281 29.9375 4.63281 31.6094 5.13281 32.7656C5.64844 33.9062 6.34375 34.4766 7.21875 34.4766C9.32812 34.4766 11.3516 33.0469 13.2891 30.1875C15.2422 27.3125 16.8203 23.7578 18.0234 19.5234C19.2266 15.2891 19.8281 11.3125 19.8281 7.59375C19.8281 5.40625 19.5703 3.74219 19.0547 2.60156C18.5547 1.44531 17.8672 0.867188 16.9922 0.867188ZM44.0391 0C46.5234 0 48.4141 0.726562 49.7109 2.17969C51.0078 3.63281 51.6562 5.77344 51.6562 8.60156C51.6562 12.7422 50.7422 16.8984 48.9141 21.0703C47.0859 25.2266 44.7188 28.6484 41.8125 31.3359C38.9219 34.0078 35.9688 35.3438 32.9531 35.3438C31.9219 35.3438 30.9219 35.1562 29.9531 34.7812C28.9844 34.4219 28.1875 33.9062 27.5625 33.2344C26.9531 32.5625 26.6484 31.7891 26.6484 30.9141C26.6484 30.3672 26.7969 29.8438 27.0938 29.3438C27.4062 28.8438 27.8125 28.4375 28.3125 28.125C28.8281 27.8125 29.3828 27.6562 29.9766 27.6562C30.5859 27.6562 31.0703 27.8203 31.4297 28.1484C31.8047 28.4766 31.9922 28.9219 31.9922 29.4844C31.9922 30.25 31.7422 30.9219 31.2422 31.5C30.7422 32.0781 30.0781 32.4766 29.25 32.6953C29.3125 33.0078 29.5234 33.3047 29.8828 33.5859C30.2578 33.8672 30.7188 34.0938 31.2656 34.2656C31.8281 34.4375 32.4062 34.5234 33 34.5234C34.625 34.5234 36.3672 33.6172 38.2266 31.8047C40.0859 29.9766 41.7734 27.5078 43.2891 24.3984C44.8203 21.2734 45.9375 17.875 46.6406 14.2031C45.3281 17.0156 43.7656 19.0547 41.9531 20.3203C40.1562 21.5703 38.3359 22.1953 36.4922 22.1953C35.1016 22.1953 33.875 21.9375 32.8125 21.4219C31.7656 20.9062 30.9375 20.1328 30.3281 19.1016C29.7344 18.0547 29.4375 16.7812 29.4375 15.2812C29.4375 12.7344 30.0703 10.2812 31.3359 7.92188C32.6172 5.5625 34.375 3.65625 36.6094 2.20312C38.8438 0.734375 41.3203 0 44.0391 0ZM37.5469 21.2344C38.3906 21.2344 39.3516 20.9609 40.4297 20.4141C41.5078 19.8672 42.6328 18.8906 43.8047 17.4844C44.9766 16.0781 46.0469 14.1875 47.0156 11.8125C47.2344 10.0938 47.3438 8.38281 47.3438 6.67969C47.3438 2.86719 46.0781 0.960938 43.5469 0.960938C41.5156 0.960938 39.7656 1.76562 38.2969 3.375C36.8281 4.98438 35.7109 7 34.9453 9.42188C34.1953 11.8438 33.8203 14.2266 33.8203 16.5703C33.8203 18.1328 34.1406 19.3047 34.7812 20.0859C35.4375 20.8516 36.3594 21.2344 37.5469 21.2344Z" fill="#E5BF9B"/>
</svg>
