<svg width="40" height="36" viewBox="0 0 40 36" fill="none" xmlns="http://www.w3.org/2000/svg">
<path d="M0 34.6641L8.10938 4.47656C6.1875 5.55469 3.80469 6.53125 0.960938 7.40625L1.10156 6.39844C2.96094 5.83594 4.58594 5.20312 5.97656 4.5C7.38281 3.79688 8.54688 3.11719 9.46875 2.46094C10.4062 1.78906 11.4688 0.96875 12.6562 0H13.6172L4.26562 34.6641H0ZM32.7188 0C34.9844 0 36.7266 0.8125 37.9453 2.4375C39.1641 4.04688 39.7734 6.51562 39.7734 9.84375C39.7734 13.7656 38.9531 17.7188 37.3125 21.7031C35.6719 25.6719 33.5078 28.9375 30.8203 31.5C28.1484 34.0625 25.3516 35.3438 22.4297 35.3438C20.2578 35.3438 18.5703 34.5312 17.3672 32.9062C16.1641 31.2656 15.5625 28.7812 15.5625 25.4531C15.5625 21.5469 16.3828 17.6094 18.0234 13.6406C19.6641 9.67188 21.8125 6.40625 24.4688 3.84375C27.125 1.28125 29.875 0 32.7188 0ZM32.5547 0.867188C30.4453 0.867188 28.4141 2.30469 26.4609 5.17969C24.5234 8.03906 22.9531 11.5859 21.75 15.8203C20.5469 20.0547 19.9453 24.0312 19.9453 27.75C19.9453 29.9375 20.1953 31.6094 20.6953 32.7656C21.2109 33.9062 21.9062 34.4766 22.7812 34.4766C24.8906 34.4766 26.9141 33.0469 28.8516 30.1875C30.8047 27.3125 32.3828 23.7578 33.5859 19.5234C34.7891 15.2891 35.3906 11.3125 35.3906 7.59375C35.3906 5.40625 35.1328 3.74219 34.6172 2.60156C34.1172 1.44531 33.4297 0.867188 32.5547 0.867188Z" fill="#E5BF9B"/>
</svg>
