<svg width="83" height="33" viewBox="0 0 83 33" fill="none" xmlns="http://www.w3.org/2000/svg">
<path d="M1.31836 31.7285L9.02344 5.74219C6.66016 7.07031 3.65234 8.29102 0 9.4043L0.205078 8.14453C2.5293 7.44141 4.56055 6.66016 6.29883 5.80078C8.05664 4.92188 9.52148 4.07227 10.6934 3.25195C11.8652 2.41211 13.1836 1.38672 14.6484 0.175781H15.8496L6.5625 31.7285H1.31836ZM38.877 0C41.9434 0 44.2773 0.927734 45.8789 2.7832C47.5 4.63867 48.3105 7.24609 48.3105 10.6055C48.3105 14.1797 47.4414 17.6758 45.7031 21.0938C43.9648 24.4922 41.6211 27.2559 38.6719 29.3848C35.7422 31.5137 32.5879 32.5781 29.209 32.5781C27.1973 32.5781 25.4492 32.168 23.9648 31.3477C22.4805 30.5273 21.3379 29.3164 20.5371 27.7148C19.7559 26.1133 19.3652 24.1699 19.3652 21.8848C19.3652 18.3301 20.2734 14.8535 22.0898 11.4551C23.9062 8.05664 26.3184 5.30273 29.3262 3.19336C32.334 1.06445 35.5176 0 38.877 0ZM37.7344 1.05469C35.5859 1.05469 33.5156 2.07031 31.5234 4.10156C29.5508 6.11328 27.9492 8.76953 26.7188 12.0703C25.5078 15.3711 24.9023 18.8281 24.9023 22.4414C24.9023 28.4766 26.7188 31.4941 30.3516 31.4941C32.5977 31.4941 34.668 30.4395 36.5625 28.3301C38.4766 26.2012 39.9902 23.4473 41.1035 20.0684C42.2168 16.6895 42.7734 13.2324 42.7734 9.69727C42.7734 6.61133 42.334 4.4043 41.4551 3.07617C40.5762 1.72852 39.3359 1.05469 37.7344 1.05469ZM72.8027 0C75.8691 0 78.2031 0.927734 79.8047 2.7832C81.4258 4.63867 82.2363 7.24609 82.2363 10.6055C82.2363 14.1797 81.3672 17.6758 79.6289 21.0938C77.8906 24.4922 75.5469 27.2559 72.5977 29.3848C69.668 31.5137 66.5137 32.5781 63.1348 32.5781C61.123 32.5781 59.375 32.168 57.8906 31.3477C56.4062 30.5273 55.2637 29.3164 54.4629 27.7148C53.6816 26.1133 53.291 24.1699 53.291 21.8848C53.291 18.3301 54.1992 14.8535 56.0156 11.4551C57.832 8.05664 60.2441 5.30273 63.252 3.19336C66.2598 1.06445 69.4434 0 72.8027 0ZM71.6602 1.05469C69.5117 1.05469 67.4414 2.07031 65.4492 4.10156C63.4766 6.11328 61.875 8.76953 60.6445 12.0703C59.4336 15.3711 58.8281 18.8281 58.8281 22.4414C58.8281 28.4766 60.6445 31.4941 64.2773 31.4941C66.5234 31.4941 68.5938 30.4395 70.4883 28.3301C72.4023 26.2012 73.916 23.4473 75.0293 20.0684C76.1426 16.6895 76.6992 13.2324 76.6992 9.69727C76.6992 6.61133 76.2598 4.4043 75.3809 3.07617C74.502 1.72852 73.2617 1.05469 71.6602 1.05469Z" fill="#E5BF9B"/>
</svg>
