<svg width="31" height="35" viewBox="0 0 31 35" fill="none" xmlns="http://www.w3.org/2000/svg">
<path d="M0 34.6641L8.10938 4.47656C6.1875 5.55469 3.80469 6.53125 0.960938 7.40625L1.10156 6.39844C2.96094 5.83594 4.58594 5.20312 5.97656 4.5C7.38281 3.79688 8.54688 3.11719 9.46875 2.46094C10.4062 1.78906 11.4688 0.96875 12.6562 0H13.6172L4.26562 34.6641H0ZM16.6875 34.6641L24.7969 4.47656C22.875 5.55469 20.4922 6.53125 17.6484 7.40625L17.7891 6.39844C19.6484 5.83594 21.2734 5.20312 22.6641 4.5C24.0703 3.79688 25.2344 3.11719 26.1562 2.46094C27.0938 1.78906 28.1562 0.96875 29.3438 0H30.3047L20.9531 34.6641H16.6875Z" fill="#E5BF9B"/>
</svg>
