<svg width="44" height="41" viewBox="0 0 44 41" fill="none" xmlns="http://www.w3.org/2000/svg">
<path d="M1.31836 31.7285L9.02344 5.74219C6.66016 7.07031 3.65234 8.29102 0 9.4043L0.205078 8.14453C2.5293 7.44141 4.56055 6.66016 6.29883 5.80078C8.05664 4.92188 9.52148 4.07227 10.6934 3.25195C11.8652 2.41211 13.1836 1.38672 14.6484 0.175781H15.8496L6.5625 31.7285H1.31836ZM34.6289 29.6777L31.8164 40.1953H26.6016L29.4141 29.6777H14.502L14.8535 28.418L41.0156 0H42.5684L35.5371 26.2793H43.5938L42.627 29.6777H34.6289ZM35.2148 7.91016L18.3984 26.2793H30.3223L35.2148 7.91016Z" fill="#E5BF9B"/>
</svg>
