<svg width="51" height="33" viewBox="0 0 51 33" fill="none" xmlns="http://www.w3.org/2000/svg">
<path d="M16.9922 12.2168C15.9375 13.2129 14.8242 13.9453 13.6523 14.4141C12.5 14.8828 11.3867 15.1172 10.3125 15.1172C9.08203 15.1172 8.02734 14.8145 7.14844 14.209C6.26953 13.6035 5.83008 12.5391 5.83008 11.0156C5.83008 9.25781 6.45508 7.5293 7.70508 5.83008C8.95508 4.11133 10.6348 2.71484 12.7441 1.64062C14.8535 0.546875 17.1094 0 19.5117 0C21.9727 0 23.9355 0.517578 25.4004 1.55273C26.8652 2.58789 27.5977 4.04297 27.5977 5.91797C27.5977 8.71094 26.1719 11.4648 23.3203 14.1797C20.4688 16.8945 17.2852 19.4727 13.7695 21.9141C10.2734 24.3359 8.16406 25.8496 7.44141 26.4551C8.55469 26.4551 10.0684 26.6309 11.9824 26.9824C13.8965 27.3145 15.4883 27.5879 16.7578 27.8027C18.0273 28.0176 19.1602 28.125 20.1562 28.125C22.9102 28.125 24.2871 27.168 24.2871 25.2539C24.2871 23.7891 23.4082 22.6465 21.6504 21.8262L22.4414 21.0645C24.6484 22.0801 25.752 23.6523 25.752 25.7812C25.752 26.8945 25.4883 27.9199 24.9609 28.8574C24.4336 29.7949 23.6035 30.5566 22.4707 31.1426C21.3574 31.7285 19.9512 32.0215 18.252 32.0215C16.9629 32.0215 15.498 31.8262 13.8574 31.4355C12.2363 31.0254 10.918 30.7227 9.90234 30.5273C8.90625 30.3125 7.74414 30.2051 6.41602 30.2051C5.22461 30.2051 4.16016 30.3223 3.22266 30.5566C2.30469 30.7715 1.23047 31.1426 0 31.6699L0.292969 30.4102C0.996094 29.8633 3.45703 28.1055 7.67578 25.1367C11.9141 22.1484 15.3809 19.0723 18.0762 15.9082C20.791 12.7246 22.1484 9.61914 22.1484 6.5918C22.1484 4.95117 21.748 3.66211 20.9473 2.72461C20.166 1.78711 19.0234 1.31836 17.5195 1.31836C16.0742 1.31836 14.541 1.79688 12.9199 2.75391C11.3184 3.71094 9.9707 4.94141 8.87695 6.44531C7.80273 7.92969 7.26562 9.43359 7.26562 10.957C7.26562 11.9531 7.53906 12.6855 8.08594 13.1543C8.63281 13.623 9.52148 13.8574 10.752 13.8574C11.7871 13.8574 12.7148 13.6621 13.5352 13.2715C14.3555 12.8809 15.2637 12.2559 16.2598 11.3965L16.9922 12.2168ZM35.7129 31.6699L43.418 5.68359C41.0547 7.01172 38.0469 8.23242 34.3945 9.3457L34.5996 8.08594C36.9238 7.38281 38.9551 6.60156 40.6934 5.74219C42.4512 4.86328 43.916 4.01367 45.0879 3.19336C46.2598 2.35352 47.5781 1.32812 49.043 0.117188H50.2441L40.957 31.6699H35.7129Z" fill="#E5BF9B"/>
</svg>
